<mxfile host="app.diagrams.net" modified="2021-09-29T00:41:47.022Z" agent="5.0 (Windows NT 10.0; Win64; x64) AppleWebKit/537.36 (KHTML, like Gecko) Chrome/94.0.4606.61 Safari/537.36" etag="dSu3ykaWnLqe7BTKv36B" version="15.2.9" type="github">
  <diagram id="w9ZJfXgdsuhHqT-xGxn4" name="Page-1">
    <mxGraphModel dx="935" dy="706" grid="1" gridSize="10" guides="1" tooltips="1" connect="1" arrows="1" fold="1" page="1" pageScale="1" pageWidth="827" pageHeight="1169" math="0" shadow="0">
      <root>
        <mxCell id="0" />
        <mxCell id="1" parent="0" />
        <mxCell id="XIqZtmoIDA_4SpIIIFzx-2" value="&lt;font style=&quot;vertical-align: inherit&quot;&gt;&lt;font style=&quot;vertical-align: inherit&quot;&gt;:&lt;/font&gt;&lt;/font&gt;" style="text;html=1;strokeColor=none;fillColor=none;align=center;verticalAlign=middle;whiteSpace=wrap;rounded=0;" vertex="1" parent="1">
          <mxGeometry x="140" y="260" width="40" height="20" as="geometry" />
        </mxCell>
        <mxCell id="XIqZtmoIDA_4SpIIIFzx-21" style="edgeStyle=orthogonalEdgeStyle;rounded=0;orthogonalLoop=1;jettySize=auto;html=1;entryX=0.457;entryY=0.017;entryDx=0;entryDy=0;entryPerimeter=0;" edge="1" parent="1" source="XIqZtmoIDA_4SpIIIFzx-4" target="XIqZtmoIDA_4SpIIIFzx-5">
          <mxGeometry relative="1" as="geometry" />
        </mxCell>
        <mxCell id="XIqZtmoIDA_4SpIIIFzx-4" value="&lt;font style=&quot;vertical-align: inherit&quot;&gt;&lt;font style=&quot;vertical-align: inherit&quot;&gt;&lt;font style=&quot;vertical-align: inherit&quot;&gt;&lt;font style=&quot;vertical-align: inherit&quot;&gt;: Estante&lt;/font&gt;&lt;/font&gt;&lt;/font&gt;&lt;/font&gt;" style="html=1;" vertex="1" parent="1">
          <mxGeometry x="260" y="75" width="110" height="50" as="geometry" />
        </mxCell>
        <mxCell id="XIqZtmoIDA_4SpIIIFzx-26" style="edgeStyle=orthogonalEdgeStyle;rounded=0;orthogonalLoop=1;jettySize=auto;html=1;" edge="1" parent="1" source="XIqZtmoIDA_4SpIIIFzx-5" target="XIqZtmoIDA_4SpIIIFzx-6">
          <mxGeometry relative="1" as="geometry" />
        </mxCell>
        <mxCell id="XIqZtmoIDA_4SpIIIFzx-5" value="&lt;p style=&quot;margin: 0px ; margin-top: 4px ; text-align: center&quot;&gt;&lt;font style=&quot;vertical-align: inherit&quot;&gt;&lt;font style=&quot;vertical-align: inherit&quot;&gt;&lt;font style=&quot;vertical-align: inherit&quot;&gt;&lt;font style=&quot;vertical-align: inherit&quot;&gt;: Livro&lt;/font&gt;&lt;/font&gt;&lt;/font&gt;&lt;/font&gt;&lt;/p&gt;" style="verticalAlign=top;align=left;overflow=fill;fontSize=12;fontFamily=Helvetica;html=1;" vertex="1" parent="1">
          <mxGeometry x="250" y="200" width="140" height="30" as="geometry" />
        </mxCell>
        <mxCell id="XIqZtmoIDA_4SpIIIFzx-23" style="edgeStyle=orthogonalEdgeStyle;rounded=0;orthogonalLoop=1;jettySize=auto;html=1;startArrow=none;startFill=0;endArrow=none;endFill=0;" edge="1" parent="1" source="XIqZtmoIDA_4SpIIIFzx-6">
          <mxGeometry relative="1" as="geometry">
            <mxPoint x="60" y="330" as="targetPoint" />
          </mxGeometry>
        </mxCell>
        <mxCell id="XIqZtmoIDA_4SpIIIFzx-6" value="&lt;p style=&quot;margin: 0px ; margin-top: 4px ; text-align: center&quot;&gt;&lt;b&gt;&lt;font style=&quot;vertical-align: inherit&quot;&gt;&lt;font style=&quot;vertical-align: inherit&quot;&gt;&lt;font style=&quot;vertical-align: inherit&quot;&gt;&lt;font style=&quot;vertical-align: inherit&quot;&gt;&lt;font style=&quot;vertical-align: inherit&quot;&gt;&lt;font style=&quot;vertical-align: inherit&quot;&gt;RetiraLivro&lt;/font&gt;&lt;/font&gt;&lt;/font&gt;&lt;/font&gt;&lt;/font&gt;&lt;/font&gt;&lt;/b&gt;&lt;/p&gt;&lt;hr size=&quot;1&quot;&gt;&lt;div style=&quot;height: 2px&quot;&gt;&lt;/div&gt;" style="verticalAlign=top;align=left;overflow=fill;fontSize=12;fontFamily=Helvetica;html=1;" vertex="1" parent="1">
          <mxGeometry x="250" y="340" width="140" height="50" as="geometry" />
        </mxCell>
        <mxCell id="XIqZtmoIDA_4SpIIIFzx-8" value="&lt;font style=&quot;vertical-align: inherit&quot;&gt;&lt;font style=&quot;vertical-align: inherit&quot;&gt;Bibliotecario&lt;/font&gt;&lt;/font&gt;" style="shape=umlActor;verticalLabelPosition=bottom;verticalAlign=top;html=1;" vertex="1" parent="1">
          <mxGeometry x="50" y="250" width="20" height="40" as="geometry" />
        </mxCell>
        <mxCell id="XIqZtmoIDA_4SpIIIFzx-15" style="edgeStyle=orthogonalEdgeStyle;rounded=0;orthogonalLoop=1;jettySize=auto;html=1;endArrow=none;endFill=0;" edge="1" parent="1" source="XIqZtmoIDA_4SpIIIFzx-14" target="XIqZtmoIDA_4SpIIIFzx-4">
          <mxGeometry relative="1" as="geometry" />
        </mxCell>
        <mxCell id="XIqZtmoIDA_4SpIIIFzx-14" value="&lt;font style=&quot;vertical-align: inherit&quot;&gt;&lt;font style=&quot;vertical-align: inherit&quot;&gt;&lt;font style=&quot;vertical-align: inherit&quot;&gt;&lt;font style=&quot;vertical-align: inherit&quot;&gt;Cliente&lt;/font&gt;&lt;/font&gt;&lt;/font&gt;&lt;/font&gt;" style="shape=umlActor;verticalLabelPosition=bottom;verticalAlign=top;html=1;" vertex="1" parent="1">
          <mxGeometry x="50" y="80" width="20" height="40" as="geometry" />
        </mxCell>
        <mxCell id="XIqZtmoIDA_4SpIIIFzx-17" value="1.LocalizarLivro" style="text;align=center;fontStyle=1;verticalAlign=middle;spacingLeft=3;spacingRight=3;strokeColor=none;rotatable=0;points=[[0,0.5],[1,0.5]];portConstraint=eastwest;" vertex="1" parent="1">
          <mxGeometry x="130" y="54" width="80" height="26" as="geometry" />
        </mxCell>
        <mxCell id="XIqZtmoIDA_4SpIIIFzx-20" value="1.1.EscolheLivro" style="text;align=center;fontStyle=1;verticalAlign=middle;spacingLeft=3;spacingRight=3;strokeColor=none;rotatable=0;points=[[0,0.5],[1,0.5]];portConstraint=eastwest;" vertex="1" parent="1">
          <mxGeometry x="260" y="160" width="80" height="26" as="geometry" />
        </mxCell>
        <mxCell id="XIqZtmoIDA_4SpIIIFzx-22" value="1.2.RetiraLivro" style="text;align=center;fontStyle=1;verticalAlign=middle;spacingLeft=3;spacingRight=3;strokeColor=none;rotatable=0;points=[[0,0.5],[1,0.5]];portConstraint=eastwest;" vertex="1" parent="1">
          <mxGeometry x="275" y="280" width="80" height="26" as="geometry" />
        </mxCell>
        <mxCell id="XIqZtmoIDA_4SpIIIFzx-25" value="1.3 AutorizaRetirarLivro" style="text;align=center;fontStyle=1;verticalAlign=middle;spacingLeft=3;spacingRight=3;strokeColor=none;rotatable=0;points=[[0,0.5],[1,0.5]];portConstraint=eastwest;" vertex="1" parent="1">
          <mxGeometry x="100" y="330" width="80" height="26" as="geometry" />
        </mxCell>
        <mxCell id="XIqZtmoIDA_4SpIIIFzx-27" value="" style="swimlane;startSize=0;" vertex="1" parent="1">
          <mxGeometry y="20" width="420" height="400" as="geometry" />
        </mxCell>
      </root>
    </mxGraphModel>
  </diagram>
</mxfile>
